<?xml version="1.0" encoding="utf-8"?>
<!-- Generator: Adobe Illustrator 15.1.0, SVG Export Plug-In . SVG Version: 6.00 Build 0)  -->
<!DOCTYPE svg PUBLIC "-//W3C//DTD SVG 1.0//EN" "http://www.w3.org/TR/2001/REC-SVG-20010904/DTD/svg10.dtd" [
	<!ENTITY ns_flows "http://ns.adobe.com/Flows/1.0/">
	<!ENTITY ns_extend "http://ns.adobe.com/Extensibility/1.0/">
	<!ENTITY ns_ai "http://ns.adobe.com/AdobeIllustrator/10.0/">
	<!ENTITY ns_graphs "http://ns.adobe.com/Graphs/1.0/">
]>
<svg version="1.0" id="Layer_1" xmlns:x="&ns_extend;" xmlns:i="&ns_ai;" xmlns:graph="&ns_graphs;"
	 xmlns="http://www.w3.org/2000/svg" xmlns:xlink="http://www.w3.org/1999/xlink" xmlns:a="http://ns.adobe.com/AdobeSVGViewerExtensions/3.0/"
	 x="0px" y="0px" width="35px" height="34.8px" viewBox="0 0 35 34.8" enable-background="new 0 0 35 34.8" xml:space="preserve">
<g>
	<path fill="#FFC10E" d="M17.6,0.4c-9.4,0-17,7.6-17,17c0,9.4,7.6,17,17,17c9.4,0,17-7.6,17-17C34.6,8.1,27,0.4,17.6,0.4z"/>
	<path fill="#231F20" d="M25.1,26.9c1.8-0.7,3.2-1.9,4.1-3.6c0.3-0.5,0.1-1.2-0.5-1.4c-0.5-0.3-1.2-0.1-1.4,0.5
		c-0.6,1.2-1.7,2.1-2.9,2.6c-1.3,0.5-2.7,0.5-3.9,0c-0.5-0.2-1.2,0.1-1.4,0.6c-0.2,0.5,0,1.2,0.6,1.4c0.9,0.4,1.8,0.5,2.8,0.5
		C23.3,27.4,24.2,27.2,25.1,26.9z"/>
	<path fill="#231F20" d="M25.4,10c-2.7,0-5.2,1.1-7.6,1c-0.1,0-0.1,0-0.2,0c-0.1,0-0.1,0-0.2,0c-2.4,0.1-4.9-1-7.6-1
		c-2.7,0-5.5,0.9-5.5,0.9v1.3c0,0,0.7,0.6,0.9,1c0.2,0.5,0.9,3.6,1.5,4.2c0.5,0.6,0.9,1.8,4.2,1.8c4.7-0.1,5.7-5,5.8-5.7
		c0.1-0.4,0.6-0.4,0.9-0.4c0.3,0,0.8,0,0.9,0.4c0.2,0.6,1.1,5.6,5.8,5.7c3.3,0,3.7-1.2,4.2-1.8c0.5-0.6,1.3-3.7,1.5-4.2
		c0.2-0.5,0.9-1,0.9-1v-1.3C30.8,10.9,28.1,10,25.4,10z"/>
</g>
</svg>
