<?xml version="1.0" encoding="utf-8"?>
<!-- Generator: Adobe Illustrator 15.1.0, SVG Export Plug-In . SVG Version: 6.00 Build 0)  -->
<!DOCTYPE svg PUBLIC "-//W3C//DTD SVG 1.0//EN" "http://www.w3.org/TR/2001/REC-SVG-20010904/DTD/svg10.dtd">
<svg version="1.0" id="Layer_1" xmlns="http://www.w3.org/2000/svg" xmlns:xlink="http://www.w3.org/1999/xlink" x="0px" y="0px"
	 width="22px" height="34px" viewBox="0 0 22 34" enable-background="new 0 0 22 34" xml:space="preserve">
<g>
	<ellipse fill="#FFFFFF" cx="11" cy="10.8" rx="8.1" ry="7.7"/>
	<path fill="#ECD073" d="M11.1,4.3c1.2,0,2.3,0.3,3.1,0.7c-1-1.6-3.1-4.5-3.1-4.5h0c0,0-2,2.9-3,4.5C8.8,4.5,9.9,4.3,11.1,4.3
		L11.1,4.3z"/>
	<g>
		<path fill="#333333" d="M19.9,18.3c1.1-2.5,1.9-4.8,1.9-6.3c0-5-4-9.2-9.2-10c0.7,1.1,1.4,2.3,2,3.3c2.1,1.2,3.4,3.2,3.4,5.6
			c0,3.6-3.2,6.6-7.1,6.6c-3.9,0-7.1-2.9-7.1-6.6c0-2.5,1.5-4.7,3.7-5.8C8.2,4.2,8.9,3,9.5,2c-5.3,0.7-9.3,4.9-9.3,10
			c0,2.5,2.1,7.1,4.4,11.3L19.9,18.3z"/>
		<path fill="#333333" d="M5.8,26.1c2.3,4,4.5,7.3,4.5,7.3c0.4,0.6,1,0.6,1.4,0c0,0,3.8-5.7,6.7-11.4L5.8,26.1z"/>
	</g>
	<polygon fill="#ECD073" points="18.7,21.3 5.8,25.7 4.8,23.7 19.9,18.6 	"/>
	<ellipse fill="#9FCC3B" cx="11" cy="11.3" rx="4.4" ry="4.1"/>
</g>
</svg>
