<?xml version="1.0" encoding="utf-8"?>
<!-- Generator: Adobe Illustrator 15.1.0, SVG Export Plug-In . SVG Version: 6.00 Build 0)  -->
<!DOCTYPE svg PUBLIC "-//W3C//DTD SVG 1.0//EN" "http://www.w3.org/TR/2001/REC-SVG-20010904/DTD/svg10.dtd">
<svg version="1.0" id="Layer_1" xmlns="http://www.w3.org/2000/svg" xmlns:xlink="http://www.w3.org/1999/xlink" x="0px" y="0px"
	 width="30.9px" height="31.5px" viewBox="0 0 30.9 31.5" enable-background="new 0 0 30.9 31.5" xml:space="preserve">
<path fill="#FFFFFF" d="M30.5,26c0,2.9-2.3,5.2-5,5.2c-2.8,0-5-2.3-5-5.2c0-0.4,0-0.7,0.1-1.1L9.2,19c-0.9,1.1-2.3,1.8-3.8,1.8
	c-2.8,0-5-2.3-5-5.2c0-2.9,2.2-5.2,5-5.2c1.5,0,2.9,0.7,3.8,1.8l11.4-5.9c-0.1-0.4-0.1-0.7-0.1-1.1c0-2.9,2.3-5.2,5-5.2
	c2.8,0,5,2.3,5,5.2c0,2.9-2.3,5.2-5,5.2c-1.5,0-2.8-0.7-3.8-1.8l-11.4,5.9c0.1,0.4,0.1,0.7,0.1,1.1c0,0.4,0,0.7-0.1,1.1l11.4,5.9
	c0.9-1.1,2.3-1.8,3.8-1.8C28.3,20.8,30.5,23.2,30.5,26z"/>
</svg>
