<?xml version="1.0" encoding="utf-8"?>
<!-- Generator: Adobe Illustrator 15.1.0, SVG Export Plug-In . SVG Version: 6.00 Build 0)  -->
<!DOCTYPE svg PUBLIC "-//W3C//DTD SVG 1.1//EN" "http://www.w3.org/Graphics/SVG/1.1/DTD/svg11.dtd">
<svg version="1.1" id="Layer_1" xmlns="http://www.w3.org/2000/svg" xmlns:xlink="http://www.w3.org/1999/xlink" x="0px" y="0px"
	 width="32px" height="52px" viewBox="52.5 43 32 52" enable-background="new 52.5 43 32 52" xml:space="preserve">
<g>
	<path id="path5430_1_" fill="#4D4D4D" d="M70.063,51.947c2.386,0.199,4.474-1.539,4.672-3.872c0.199-2.333-1.59-4.369-3.977-4.566
		c-2.386-0.149-4.474,1.539-4.672,3.872C65.888,49.713,67.627,51.749,70.063,51.947"/>
	<path id="path5432_1_" fill="#4D4D4D" d="M66.385,53.684c0.845-0.595,1.889-0.993,3.032-0.844c1.492,0.1,2.734,0.993,3.479,2.085
		l4.374,8.438l5.967,4.021c0.546,0.397,0.844,0.993,0.744,1.688c-0.1,1.042-1.044,1.836-2.088,1.738
		c-0.348,0-0.596-0.15-0.895-0.299l-6.512-4.368c-0.198-0.149-0.348-0.348-0.497-0.546l-1.641-3.176l-1.987,8.438l7.704,8.835
		c0.198,0.249,0.298,0.598,0.349,0.894l2.087,10.672c0,0.249,0,0.398,0,0.598c-0.1,1.588-1.541,2.779-3.182,2.631
		c-1.342-0.1-2.337-1.043-2.634-2.285l-1.939-9.977l-6.263-6.7l-1.442,6.502c-0.049,0.297-0.447,0.944-0.596,1.19l-6.016,9.828
		c-0.597,0.894-1.591,1.49-2.734,1.392c-1.641-0.1-2.833-1.491-2.684-3.079c0.049-0.445,0.249-0.894,0.397-1.239l5.568-9.084
		l4.672-20.055l-3.032,2.383l-1.591,7.148c-0.199,0.943-1.094,1.688-2.088,1.588c-1.094-0.1-1.889-0.992-1.789-2.035
		c0-0.1,0-0.148,0.049-0.248l1.839-8.389c0.099-0.348,0.348-0.695,0.597-0.943L66.385,53.684z"/>
</g>
</svg>
