<?xml version="1.0" encoding="utf-8"?>
<!-- Generator: Adobe Illustrator 15.1.0, SVG Export Plug-In . SVG Version: 6.00 Build 0)  -->
<!DOCTYPE svg PUBLIC "-//W3C//DTD SVG 1.0//EN" "http://www.w3.org/TR/2001/REC-SVG-20010904/DTD/svg10.dtd">
<svg version="1.0" id="Layer_1" xmlns="http://www.w3.org/2000/svg" xmlns:xlink="http://www.w3.org/1999/xlink" x="0px" y="0px"
	 width="81px" height="81px" viewBox="0 0 81 81" enable-background="new 0 0 81 81" xml:space="preserve">
<g>
	<circle fill="#444444" cx="40.5" cy="40.8" r="40"/>
	<path fill="#999999" d="M40.5,0.2c-22.1,0-40,17.9-40,40h80C80.5,18.1,62.6,0.2,40.5,0.2z"/>
</g>
<g>
	<path fill="#D7D5D6" d="M59.8,54.5c-1.9-1.4-7.5-0.6-10.6-3.6c-3.1-3-1.8-10.1-1.8-10.1H43h-4.3c0,0,1.2,7.1-1.8,10.1
		c-3.1,3-8.7,2.3-10.6,3.6c-1.9,1.4-4.6,9.4-4.6,9.4H43h21.4C64.4,63.9,61.7,55.8,59.8,54.5z"/>
	<path fill="#908C8D" d="M44.6,48.5L44.6,48.5c0.4,0,1.4-0.5,2.7-1.3c-0.7-3.1-0.1-6.5-0.1-6.5H43h-4.3c0,0,0.4,2.1,0.2,4.5
		C41.2,47.4,44,48.6,44.6,48.5z"/>
	<path fill="#CEAB9A" d="M32.5,35.5c0.3,0.6,0.7,1.1,1.2,1.5c1.6,1.1,1-1.1,0.8-1.9c-0.3-1.2,0.1-2.7-0.6-3.8
		c-0.5-0.9-2.1-2.3-2.9-0.9c-0.7,1.4,0.2,3,0.9,4.2C32.2,34.9,32.4,35.2,32.5,35.5z"/>
	<path fill="#CEAB9A" d="M53.7,35.3c-0.3,0.6-0.6,1.1-1.1,1.5c-1.6,1.1-1-1.1-0.9-1.9c0.3-1.2-0.1-2.7,0.5-3.8
		c0.5-1,2.1-2.3,2.8-0.9c0.8,1.3-0.1,3-0.8,4.2C54,34.6,53.8,34.9,53.7,35.3z"/>
	<path fill="#FAC79B" d="M43.2,45.3"/>
	<path fill="#FAC79B" d="M43,45.3c0.9,0,7.1-3.3,8.6-7.9c0.9-3,1.1-6.5,1.3-9.6c0-0.6,0.1-1.2,0.1-1.8c0-0.7,0-1.5-0.3-2.3
		c-0.6-1.7-1.6-3.3-2.9-4.5c-2-1.8-4.6-2.8-7.2-2.7c-2.7,0-5.3,1.1-7.2,3c-0.9,0.9-1.7,2.1-2.2,3.3c-0.5,1.2-1,2.6-0.9,3.9
		c0.1,0.9,0.3,1.8,0.4,2.7c0.4,2.9,1,5.7,1.8,8.5C35.7,42.5,42,45.4,43,45.3"/>
	<path fill="#CEAB9A" d="M43,45.3c0.9,0,7.1-3.3,8.6-7.9c0.9-3,1.1-6.5,1.3-9.6c0-0.6,0.1-1.2,0.1-1.8c0-0.7,0-1.5-0.3-2.3
		c-0.6-1.7-1.6-3.3-2.9-4.5c-2-1.8-4.6-2.8-7.2-2.7c-2.7,0-5.3,1.1-7.2,3c-0.9,0.9-1.7,2.1-2.2,3.3c-0.5,1.2-1,2.6-0.9,3.9
		c0.1,0.9,0.3,1.8,0.4,2.7c0.4,2.9,1,5.7,1.8,8.5C35.7,42.5,42,45.4,43,45.3"/>
	<path fill="#3F3F3F" d="M34.9,15.9c2.6-2.2,6.2-2.8,9.6-2.4c12.1,1.7,9.8,16,9.8,16c-0.8-0.3-1.5,1.3-1.5,1.3
		c-0.3-5.2-4.9-8.4-10.5-9.8c-2.2-0.6-4.3-1-6.2-2.2c-2.3,2.8-3.7,8.2-2.9,12.7c0,0-0.6-1.9-1.7-1.7c-0.1,0-0.5-3.5-0.5-3.7
		c-0.1-2.5,0.5-4.8,1.5-7.1C33.1,17.8,33.9,16.7,34.9,15.9z"/>
	<ellipse fill="#3F3F3F" cx="42.6" cy="13.8" rx="5.8" ry="5.5"/>
	<path fill="#3F3F3F" d="M42.2,13.8c-5.5,0-9.6,8.5-9.6,14.4c0,0,0,0,0,0.1h5.2l0.4-3l0.1,3h5.3h0.9h3.3h0.8h3.9c0,0,0,0,0-0.1
		C52.6,22.3,47.7,13.8,42.2,13.8z"/>
	<g>
		<path d="M42.4,34.4c0,0,0-0.1,0.1-0.1c0,0,0.1-0.1,0.2-0.1c0.1,0,0.1,0,0.2,0.1c0,0,0.1,0.1,0.1,0.1v2h1c0.1,0,0.2,0,0.2,0.1
			c0,0,0.1,0.1,0.1,0.2c0,0.1,0,0.1-0.1,0.2s-0.1,0.1-0.2,0.1h-1.3c-0.1,0-0.1,0-0.2-0.1c0,0-0.1-0.1-0.1-0.1V34.4z"/>
	</g>
	<path fill="#3F3F3F" d="M53.6,33.8c-0.1,0.3-0.3,0.5-0.5,0.7c-0.7,0.5-0.5-0.5-0.4-0.9c0.1-0.6-0.1-1.2,0.2-1.8
		c0.2-0.5,1-1.1,1.3-0.4c0.4,0.6,0,1.4-0.4,2C53.8,33.5,53.7,33.7,53.6,33.8z"/>
	<path fill="#3F3F3F" d="M32.3,34.2c0.2,0.3,0.3,0.6,0.6,0.7c0.8,0.5,0.5-0.6,0.4-0.9c-0.1-0.6,0-1.3-0.3-1.9
		c-0.3-0.5-1.1-1.1-1.5-0.4c-0.4,0.7,0.1,1.5,0.5,2.1C32.1,33.9,32.2,34.1,32.3,34.2z"/>
	<path fill="#5B5D6E" stroke="#FEDE8C" stroke-width="0.5" stroke-miterlimit="10" d="M46.6,25.3c0.3,0,0.5,0.2,0.5,0.5
		c0,0.3-0.2,0.5-0.5,0.5c-0.3,0-0.5-0.2-0.5-0.5C46.1,25.6,46.3,25.3,46.6,25.3z"/>
	<path fill="#5B5D6E" stroke="#FEDE8C" stroke-width="0.75" stroke-miterlimit="10" d="M49.4,25.1c0.4,0,0.8,0.4,0.8,0.8
		s-0.4,0.8-0.8,0.8c-0.4,0-0.8-0.4-0.8-0.8C48.6,25.4,49,25.1,49.4,25.1z"/>
	<g>
		<path fill="#5B5D6E" d="M50.5,58.5c0,1.1-1,2.1-2.2,2.1H37.4c-1.2,0-2.2-0.9-2.2-2.1s1-2.1,2.2-2.1h10.9
			C49.5,56.4,50.5,57.3,50.5,58.5z"/>
		<path fill="none" stroke="#231F20" stroke-width="0.75" stroke-miterlimit="10" d="M50.5,58.6c0,1.1-1,2.1-2.2,2.1H37.4
			c-1.2,0-2.2-0.9-2.2-2.1s1-2.1,2.2-2.1h10.9C49.5,56.5,50.5,57.4,50.5,58.6z"/>
	</g>
	<text transform="matrix(1 0 0 1 38.6826 59.6875)" fill="#74D6FF" font-family="'Digitaltech'" font-size="3.1875">Hello</text>
</g>
</svg>
