<?xml version="1.0" encoding="utf-8"?>
<!-- Generator: Adobe Illustrator 15.1.0, SVG Export Plug-In . SVG Version: 6.00 Build 0)  -->
<!DOCTYPE svg PUBLIC "-//W3C//DTD SVG 1.0//EN" "http://www.w3.org/TR/2001/REC-SVG-20010904/DTD/svg10.dtd" [
	<!ENTITY ns_flows "http://ns.adobe.com/Flows/1.0/">
	<!ENTITY ns_extend "http://ns.adobe.com/Extensibility/1.0/">
	<!ENTITY ns_ai "http://ns.adobe.com/AdobeIllustrator/10.0/">
	<!ENTITY ns_graphs "http://ns.adobe.com/Graphs/1.0/">
]>
<svg version="1.0" id="Layer_1" xmlns:x="&ns_extend;" xmlns:i="&ns_ai;" xmlns:graph="&ns_graphs;"
	 xmlns="http://www.w3.org/2000/svg" xmlns:xlink="http://www.w3.org/1999/xlink" xmlns:a="http://ns.adobe.com/AdobeSVGViewerExtensions/3.0/"
	 x="0px" y="0px" width="67px" height="53.8px" viewBox="0 0 67 53.8" enable-background="new 0 0 67 53.8" xml:space="preserve">
<g>
	<g>
		<circle fill="#1B4145" cx="40.3" cy="9.6" r="7.7"/>
		<path fill="#1B4145" d="M40.3,23c-8.1,0-14.7,6.6-14.7,14.7h29.5C55.1,29.6,48.5,23,40.3,23z"/>
	</g>
	<g>
		<circle fill="#609399" cx="17.2" cy="9.6" r="7.7"/>
		<path fill="#609399" d="M17.2,23.2C9,23.2,2.3,29.6,2.3,37.5h29.7C32.1,29.6,25.4,23.2,17.2,23.2z"/>
	</g>
	<circle fill="#F14742" cx="55.8" cy="41.6" r="9.1"/>
	<path d="M17.2,18.5c4.8,0,8.8-3.9,8.8-8.8C26,4.9,22,1,17.2,1S8.4,4.9,8.4,9.8C8.4,14.6,12.4,18.5,17.2,18.5z M17.2,3.1
		c3.7,0,6.7,3,6.7,6.7c0,3.7-3,6.7-6.7,6.7c-3.7,0-6.7-3-6.7-6.7C10.5,6.1,13.5,3.1,17.2,3.1z"/>
	<path d="M40.3,18.5c4.8,0,8.8-3.9,8.8-8.8c0-4.8-3.9-8.8-8.8-8.8c-4.8,0-8.8,3.9-8.8,8.8C31.6,14.6,35.5,18.5,40.3,18.5z M40.3,3.1
		c3.7,0,6.7,3,6.7,6.7c0,3.7-3,6.7-6.7,6.7s-6.7-3-6.7-6.7C33.7,6.1,36.7,3.1,40.3,3.1z"/>
	<path d="M51.7,30.3c0.2,0.3,0.5,0.4,0.8,0.4c0.2,0,0.5-0.1,0.6-0.2c0.5-0.4,0.5-1,0.2-1.5c-3.1-4.1-7.9-6.4-13.1-6.4
		c-3.3,0-6.5,1-9.2,2.8c-0.5,0.3-0.6,1-0.3,1.5s1,0.6,1.5,0.3c2.4-1.6,5.2-2.5,8-2.5C44.8,24.7,49,26.7,51.7,30.3z"/>
	<path d="M17.2,22.6C8.1,22.6,0.7,30,0.7,39.1c0,0.6,0.5,1.1,1.1,1.1c0.6,0,1.1-0.5,1.1-1.1c0-7.9,6.5-14.4,14.4-14.4
		c7.9,0,14.4,6.5,14.4,14.4c0,0.6,0.5,1.1,1.1,1.1c0.6,0,1.1-0.5,1.1-1.1C33.7,30,26.3,22.6,17.2,22.6z"/>
	<path d="M55.8,32.4c-5.6,0-10.2,4.6-10.2,10.2s4.6,10.2,10.2,10.2s10.2-4.6,10.2-10.2S61.4,32.4,55.8,32.4z M55.8,50.7
		c-4.4,0-8.1-3.6-8.1-8.1s3.6-8.1,8.1-8.1c4.4,0,8.1,3.6,8.1,8.1S60.2,50.7,55.8,50.7z"/>
	<path d="M59.3,41.5h-2.5v-2.5c0-0.6-0.5-1.1-1.1-1.1c-0.6,0-1.1,0.5-1.1,1.1v2.5h-2.5c-0.6,0-1.1,0.5-1.1,1.1s0.5,1.1,1.1,1.1h2.5
		v2.5c0,0.6,0.5,1.1,1.1,1.1c0.6,0,1.1-0.5,1.1-1.1v-2.5h2.5c0.6,0,1.1-0.5,1.1-1.1S59.9,41.5,59.3,41.5z"/>
</g>
</svg>
