<?xml version="1.0" encoding="utf-8"?>
<!-- Generator: Adobe Illustrator 15.1.0, SVG Export Plug-In . SVG Version: 6.00 Build 0)  -->
<!DOCTYPE svg PUBLIC "-//W3C//DTD SVG 1.0//EN" "http://www.w3.org/TR/2001/REC-SVG-20010904/DTD/svg10.dtd" [
	<!ENTITY ns_flows "http://ns.adobe.com/Flows/1.0/">
	<!ENTITY ns_extend "http://ns.adobe.com/Extensibility/1.0/">
	<!ENTITY ns_ai "http://ns.adobe.com/AdobeIllustrator/10.0/">
	<!ENTITY ns_graphs "http://ns.adobe.com/Graphs/1.0/">
]>
<svg version="1.0" id="Layer_1" xmlns:x="&ns_extend;" xmlns:i="&ns_ai;" xmlns:graph="&ns_graphs;"
	 xmlns="http://www.w3.org/2000/svg" xmlns:xlink="http://www.w3.org/1999/xlink" xmlns:a="http://ns.adobe.com/AdobeSVGViewerExtensions/3.0/"
	 x="0px" y="0px" width="31.8px" height="25.3px" viewBox="0 0 31.8 25.3" enable-background="new 0 0 31.8 25.3"
	 xml:space="preserve">
<path fill="#92C6DD" d="M5.3,19.9L5.3,19.9c-1.5,0-3.2-0.8-4.9-2.3c1.8,2.7,4.1,4.6,7,5.9c3.3,1.2,6.6,1.3,9.9,0.3h0.1
	c3.2-1,5.9-3,8.2-6.1c1-1.6,1.7-3.1,1.9-4.6c1.7,0.1,2.9-0.4,3.6-1.5l0,0c-0.6,0.2-1.6,0.2-3.3-0.2v-0.2c0,0,0,0,0,0
	c1.8-0.2,2.8-0.8,3.1-1.8c-1.2,0.5-2.4,0.5-3.7,0c-0.2-1.8-1-3.4-2.4-4.9c0,0,0,0-0.1-0.1c-1.1-1.1-2.5-1.7-4-1.6l0-0.1c0,0,0,0,0,0
	c1.4-0.3,2.2-0.7,2.5-1.1c0.1-0.3,0-0.5-0.3-0.5c-0.7,0.1-1.4,0.3-1.9,0.5c0.7-0.5,1-0.9,0.9-1c-0.7,0-1.5,0.4-2.3,1.2
	c0.3-0.6,0.4-0.9,0.3-0.9c-0.4,0.3-0.7,0.6-1,0.9c-0.6,0.7-1.1,1.4-1.5,2l0,0.1c-1,1.7-1.7,3.4-2.1,5.2l-0.2,0.1l0,0
	c-0.6-0.8-1.3-1.5-2.1-2c-1-0.7-2.2-1.4-3.5-2c-1.5-0.8-3-1.5-4.5-2c0,1.8,0.8,3.3,2.5,4.3v0c-0.6,0-1.1,0.1-1.7,0.3
	c0.1,1.7,1.2,2.8,3.3,3.5l0,0c-0.8-0.1-1.5,0.3-2.1,0.9c0.7,1.5,1.9,2.2,3.7,2.1c-0.4,0.2-0.6,0.4-0.8,0.6c-0.3,0.4-0.4,0.8-0.3,1.3
	c0.4,0.7,1.1,1.1,2.1,1l0.1,0.1c0,0,0,0,0,0C9.9,19.2,7.8,20.1,5.3,19.9z"/>
</svg>
